<mxfile host="app.diagrams.net" modified="2024-06-17T03:32:27.650Z" agent="Mozilla/5.0 (Windows NT 10.0; Win64; x64) AppleWebKit/537.36 (KHTML, like Gecko) Chrome/124.0.0.0 Safari/537.36" etag="YhedCOr3dYBAk6Fsr3jC" version="24.5.4" type="google" pages="5">
  <diagram id="C5RBs43oDa-KdzZeNtuy" name="Page-1">
    <mxGraphModel grid="1" page="1" gridSize="10" guides="1" tooltips="1" connect="1" arrows="1" fold="1" pageScale="1" pageWidth="827" pageHeight="1169" math="0" shadow="0">
      <root>
        <mxCell id="WIyWlLk6GJQsqaUBKTNV-0" />
        <mxCell id="WIyWlLk6GJQsqaUBKTNV-1" parent="WIyWlLk6GJQsqaUBKTNV-0" />
        <mxCell id="w_PTL4tWq508-zRgjBQH-2" style="edgeStyle=orthogonalEdgeStyle;rounded=0;orthogonalLoop=1;jettySize=auto;html=1;entryX=0.5;entryY=0;entryDx=0;entryDy=0;" edge="1" parent="WIyWlLk6GJQsqaUBKTNV-1" source="w_PTL4tWq508-zRgjBQH-0">
          <mxGeometry relative="1" as="geometry">
            <mxPoint x="460.0000000000002" y="280" as="targetPoint" />
          </mxGeometry>
        </mxCell>
        <mxCell id="w_PTL4tWq508-zRgjBQH-0" value="&lt;h2&gt;&lt;font style=&quot;font-size: 28px;&quot;&gt;start&lt;/font&gt;&lt;/h2&gt;" style="strokeWidth=2;html=1;shape=mxgraph.flowchart.terminator;whiteSpace=wrap;fillColor=#fff2cc;strokeColor=#d6b656;" vertex="1" parent="WIyWlLk6GJQsqaUBKTNV-1">
          <mxGeometry x="380" y="160" width="160" height="80" as="geometry" />
        </mxCell>
        <mxCell id="w_PTL4tWq508-zRgjBQH-5" value="Name Student ID :&lt;span style=&quot;background-color: initial;&quot;&gt;1670700044&lt;/span&gt;&lt;div&gt;&lt;span style=&quot;background-color: initial;&quot;&gt;นายณัฐชนนท์ ศิรมลพืวัฒน์ เลขที่ 1&lt;/span&gt;&lt;/div&gt;" style="rounded=1;whiteSpace=wrap;html=1;absoluteArcSize=1;arcSize=14;strokeWidth=2;" vertex="1" parent="WIyWlLk6GJQsqaUBKTNV-1">
          <mxGeometry x="550" y="30" width="240" height="90" as="geometry" />
        </mxCell>
        <mxCell id="w_PTL4tWq508-zRgjBQH-6" value="&lt;h2&gt;num 1 + num 2&lt;/h2&gt;&lt;h2&gt;1 Start&amp;nbsp;&lt;br&gt;2 Declare vaniable num 1,num 2 , sum&lt;br&gt;3 Input num 1 , num 2&amp;nbsp;&lt;br&gt;4 Compute&amp;nbsp;&lt;span style=&quot;background-color: initial;&quot;&gt;sum = num 1 + num 2&amp;nbsp;&lt;br&gt;&lt;/span&gt;&lt;span style=&quot;background-color: initial;&quot;&gt;5 print sum&lt;br&gt;&lt;/span&gt;&lt;span style=&quot;background-color: initial;&quot;&gt;6 end&amp;nbsp;&lt;/span&gt;&lt;/h2&gt;" style="rounded=1;whiteSpace=wrap;html=1;absoluteArcSize=1;arcSize=14;strokeWidth=2;align=left;" vertex="1" parent="WIyWlLk6GJQsqaUBKTNV-1">
          <mxGeometry x="30" y="140" width="290" height="200" as="geometry" />
        </mxCell>
        <mxCell id="w_PTL4tWq508-zRgjBQH-7" style="edgeStyle=orthogonalEdgeStyle;rounded=0;orthogonalLoop=1;jettySize=auto;html=1;entryX=0.5;entryY=0;entryDx=0;entryDy=0;entryPerimeter=0;exitX=0.5;exitY=1;exitDx=0;exitDy=0;" edge="1" parent="WIyWlLk6GJQsqaUBKTNV-1">
          <mxGeometry relative="1" as="geometry">
            <mxPoint x="460.0000000000002" y="340" as="sourcePoint" />
            <mxPoint x="460.0000000000002" y="380" as="targetPoint" />
          </mxGeometry>
        </mxCell>
        <mxCell id="w_PTL4tWq508-zRgjBQH-10" value="&lt;h5&gt;Declare Vaniable&amp;nbsp;&lt;span style=&quot;text-align: left;&quot;&gt;&amp;nbsp;num 1 , num 2&amp;nbsp;&lt;/span&gt;&lt;/h5&gt;" style="rounded=1;whiteSpace=wrap;html=1;absoluteArcSize=1;arcSize=14;strokeWidth=2;fillColor=#dae8fc;strokeColor=#6c8ebf;" vertex="1" parent="WIyWlLk6GJQsqaUBKTNV-1">
          <mxGeometry x="370" y="280" width="180" height="60" as="geometry" />
        </mxCell>
        <mxCell id="w_PTL4tWq508-zRgjBQH-14" style="edgeStyle=orthogonalEdgeStyle;rounded=0;orthogonalLoop=1;jettySize=auto;html=1;entryX=0.5;entryY=0;entryDx=0;entryDy=0;" edge="1" parent="WIyWlLk6GJQsqaUBKTNV-1" source="w_PTL4tWq508-zRgjBQH-11" target="w_PTL4tWq508-zRgjBQH-13">
          <mxGeometry relative="1" as="geometry" />
        </mxCell>
        <mxCell id="w_PTL4tWq508-zRgjBQH-11" value="&lt;h5 style=&quot;text-align: left;&quot;&gt;&amp;nbsp;Input num 1 , num 2&lt;/h5&gt;" style="shape=parallelogram;html=1;strokeWidth=2;perimeter=parallelogramPerimeter;whiteSpace=wrap;rounded=1;arcSize=12;size=0.23;fillColor=#d5e8d4;strokeColor=#82b366;" vertex="1" parent="WIyWlLk6GJQsqaUBKTNV-1">
          <mxGeometry x="387.5" y="380" width="145" height="60" as="geometry" />
        </mxCell>
        <mxCell id="w_PTL4tWq508-zRgjBQH-12" value="&lt;h2&gt;end&lt;/h2&gt;" style="strokeWidth=2;html=1;shape=mxgraph.flowchart.terminator;whiteSpace=wrap;fillColor=#fff2cc;strokeColor=#d6b656;" vertex="1" parent="WIyWlLk6GJQsqaUBKTNV-1">
          <mxGeometry x="405" y="680" width="120" height="60" as="geometry" />
        </mxCell>
        <mxCell id="w_PTL4tWq508-zRgjBQH-16" style="edgeStyle=orthogonalEdgeStyle;rounded=0;orthogonalLoop=1;jettySize=auto;html=1;" edge="1" parent="WIyWlLk6GJQsqaUBKTNV-1" source="w_PTL4tWq508-zRgjBQH-13" target="w_PTL4tWq508-zRgjBQH-15">
          <mxGeometry relative="1" as="geometry" />
        </mxCell>
        <mxCell id="w_PTL4tWq508-zRgjBQH-13" value="&lt;h5 style=&quot;text-align: left;&quot;&gt;Compute&amp;nbsp;&lt;span style=&quot;background-color: initial;&quot;&gt;sum = num 1 + num 2&lt;/span&gt;&lt;/h5&gt;" style="rounded=1;whiteSpace=wrap;html=1;absoluteArcSize=1;arcSize=14;strokeWidth=2;fillColor=#dae8fc;strokeColor=#6c8ebf;" vertex="1" parent="WIyWlLk6GJQsqaUBKTNV-1">
          <mxGeometry x="370" y="480" width="180" height="70" as="geometry" />
        </mxCell>
        <mxCell id="w_PTL4tWq508-zRgjBQH-15" value="&lt;h5&gt;print sum&lt;/h5&gt;" style="shape=parallelogram;html=1;strokeWidth=2;perimeter=parallelogramPerimeter;whiteSpace=wrap;rounded=1;arcSize=12;size=0.23;fillColor=#d5e8d4;strokeColor=#82b366;" vertex="1" parent="WIyWlLk6GJQsqaUBKTNV-1">
          <mxGeometry x="370" y="570" width="190" height="60" as="geometry" />
        </mxCell>
        <mxCell id="w_PTL4tWq508-zRgjBQH-17" style="edgeStyle=orthogonalEdgeStyle;rounded=0;orthogonalLoop=1;jettySize=auto;html=1;entryX=0.5;entryY=0;entryDx=0;entryDy=0;entryPerimeter=0;" edge="1" parent="WIyWlLk6GJQsqaUBKTNV-1" source="w_PTL4tWq508-zRgjBQH-15" target="w_PTL4tWq508-zRgjBQH-12">
          <mxGeometry relative="1" as="geometry" />
        </mxCell>
      </root>
    </mxGraphModel>
  </diagram>
  <diagram id="zuvnOIfzb2YiWR2JDFGr" name="Page-2">
    <mxGraphModel grid="1" page="1" gridSize="10" guides="1" tooltips="1" connect="1" arrows="1" fold="1" pageScale="1" pageWidth="850" pageHeight="1100" math="0" shadow="0">
      <root>
        <mxCell id="0" />
        <mxCell id="1" parent="0" />
        <mxCell id="L8Vs_UJAr9JN-5_L8geH-1" style="edgeStyle=orthogonalEdgeStyle;rounded=0;orthogonalLoop=1;jettySize=auto;html=1;entryX=0.5;entryY=0;entryDx=0;entryDy=0;" edge="1" parent="1" source="L8Vs_UJAr9JN-5_L8geH-2">
          <mxGeometry relative="1" as="geometry">
            <mxPoint x="460.0000000000002" y="280" as="targetPoint" />
          </mxGeometry>
        </mxCell>
        <mxCell id="L8Vs_UJAr9JN-5_L8geH-2" value="&lt;h2&gt;&lt;font style=&quot;font-size: 28px;&quot;&gt;start&lt;/font&gt;&lt;/h2&gt;" style="strokeWidth=2;html=1;shape=mxgraph.flowchart.terminator;whiteSpace=wrap;fillColor=#fff2cc;strokeColor=#d6b656;" vertex="1" parent="1">
          <mxGeometry x="380" y="160" width="160" height="80" as="geometry" />
        </mxCell>
        <mxCell id="L8Vs_UJAr9JN-5_L8geH-3" style="edgeStyle=orthogonalEdgeStyle;rounded=0;orthogonalLoop=1;jettySize=auto;html=1;entryX=0.5;entryY=0;entryDx=0;entryDy=0;entryPerimeter=0;exitX=0.5;exitY=1;exitDx=0;exitDy=0;" edge="1" parent="1">
          <mxGeometry relative="1" as="geometry">
            <mxPoint x="460.0000000000002" y="340" as="sourcePoint" />
            <mxPoint x="460.0000000000002" y="380" as="targetPoint" />
          </mxGeometry>
        </mxCell>
        <mxCell id="L8Vs_UJAr9JN-5_L8geH-4" value="&lt;h5&gt;Declare Vaniable&amp;nbsp;&lt;span style=&quot;text-align: left;&quot;&gt;&amp;nbsp;&lt;/span&gt;num 1,num 2&amp;nbsp; , num 3 , num 4 , num 5 , AVG&lt;/h5&gt;" style="rounded=1;whiteSpace=wrap;html=1;absoluteArcSize=1;arcSize=14;strokeWidth=2;fillColor=#dae8fc;strokeColor=#6c8ebf;" vertex="1" parent="1">
          <mxGeometry x="370" y="280" width="180" height="60" as="geometry" />
        </mxCell>
        <mxCell id="L8Vs_UJAr9JN-5_L8geH-5" style="edgeStyle=orthogonalEdgeStyle;rounded=0;orthogonalLoop=1;jettySize=auto;html=1;entryX=0.5;entryY=0;entryDx=0;entryDy=0;" edge="1" parent="1" source="L8Vs_UJAr9JN-5_L8geH-6" target="L8Vs_UJAr9JN-5_L8geH-9">
          <mxGeometry relative="1" as="geometry" />
        </mxCell>
        <mxCell id="L8Vs_UJAr9JN-5_L8geH-6" value="&lt;h5 style=&quot;&quot;&gt;&amp;nbsp;Input num 1 , num 2 ,&amp;nbsp;&lt;/h5&gt;&lt;h5 style=&quot;&quot;&gt;num 3 , num 4 , num 5&amp;nbsp;&lt;/h5&gt;" style="shape=parallelogram;html=1;strokeWidth=2;perimeter=parallelogramPerimeter;whiteSpace=wrap;rounded=1;arcSize=12;size=0.23;fillColor=#d5e8d4;strokeColor=#82b366;align=center;" vertex="1" parent="1">
          <mxGeometry x="387.5" y="380" width="145" height="60" as="geometry" />
        </mxCell>
        <mxCell id="L8Vs_UJAr9JN-5_L8geH-7" value="&lt;h2&gt;end&lt;/h2&gt;" style="strokeWidth=2;html=1;shape=mxgraph.flowchart.terminator;whiteSpace=wrap;fillColor=#fff2cc;strokeColor=#d6b656;" vertex="1" parent="1">
          <mxGeometry x="405" y="680" width="120" height="60" as="geometry" />
        </mxCell>
        <mxCell id="L8Vs_UJAr9JN-5_L8geH-8" style="edgeStyle=orthogonalEdgeStyle;rounded=0;orthogonalLoop=1;jettySize=auto;html=1;" edge="1" parent="1" source="L8Vs_UJAr9JN-5_L8geH-9" target="L8Vs_UJAr9JN-5_L8geH-10">
          <mxGeometry relative="1" as="geometry" />
        </mxCell>
        <mxCell id="L8Vs_UJAr9JN-5_L8geH-9" value="&lt;h5 style=&quot;text-align: left;&quot;&gt;Compute AVG&lt;span style=&quot;background-color: initial;&quot;&gt;&amp;nbsp;=&amp;nbsp;&lt;/span&gt;(num 1 + num 2 + num3 + num 4 + num 5 )/5&amp;nbsp;&lt;/h5&gt;" style="rounded=1;whiteSpace=wrap;html=1;absoluteArcSize=1;arcSize=14;strokeWidth=2;fillColor=#dae8fc;strokeColor=#6c8ebf;" vertex="1" parent="1">
          <mxGeometry x="370" y="480" width="180" height="70" as="geometry" />
        </mxCell>
        <mxCell id="L8Vs_UJAr9JN-5_L8geH-10" value="&lt;h5&gt;print avg&lt;/h5&gt;" style="shape=parallelogram;html=1;strokeWidth=2;perimeter=parallelogramPerimeter;whiteSpace=wrap;rounded=1;arcSize=12;size=0.23;fillColor=#d5e8d4;strokeColor=#82b366;" vertex="1" parent="1">
          <mxGeometry x="370" y="570" width="190" height="60" as="geometry" />
        </mxCell>
        <mxCell id="L8Vs_UJAr9JN-5_L8geH-11" style="edgeStyle=orthogonalEdgeStyle;rounded=0;orthogonalLoop=1;jettySize=auto;html=1;entryX=0.5;entryY=0;entryDx=0;entryDy=0;entryPerimeter=0;" edge="1" parent="1" source="L8Vs_UJAr9JN-5_L8geH-10" target="L8Vs_UJAr9JN-5_L8geH-7">
          <mxGeometry relative="1" as="geometry" />
        </mxCell>
        <mxCell id="dI6UgtsW-7HWfvbm7D4u-1" value="&lt;h2 style=&quot;text-align: center;&quot;&gt;ค่าเฉลี่ยตัวเลข 5 ตัว&lt;/h2&gt;&lt;h4&gt;1 Start&amp;nbsp;&lt;br&gt;2 Declare vaniable num 1,num 2 ,&amp;nbsp; num 3 , num 4 , num 5 , AVG&amp;nbsp;&lt;br&gt;3 Input num 1 , num 2 , num 3 num 4 , num 5&amp;nbsp;&lt;br&gt;4 Compute&amp;nbsp;&lt;span style=&quot;background-color: initial;&quot;&gt;sum = (num 1 + num 2 + num3 + num 4 + num 5 )/5&amp;nbsp;&lt;br&gt;&lt;/span&gt;&lt;span style=&quot;background-color: initial;&quot;&gt;5 print AVG&lt;br&gt;&lt;/span&gt;&lt;span style=&quot;background-color: initial;&quot;&gt;6 end&amp;nbsp;&lt;/span&gt;&lt;/h4&gt;" style="rounded=1;whiteSpace=wrap;html=1;absoluteArcSize=1;arcSize=14;strokeWidth=2;align=left;" vertex="1" parent="1">
          <mxGeometry x="20" y="30" width="370" height="140" as="geometry" />
        </mxCell>
        <mxCell id="nYBUVYd8rU6JduLdaEa2-1" value="&lt;h3&gt;&lt;font face=&quot;Times New Roman&quot;&gt;Name Student ID :&lt;span style=&quot;background-color: initial;&quot;&gt;1670700044&lt;br&gt;&lt;/span&gt;&lt;span style=&quot;background-color: initial;&quot;&gt;นายณัฐชนนท์ ศิรมลพืวัฒน์ เลขที่ 1&lt;/span&gt;&lt;/font&gt;&lt;/h3&gt;" style="rounded=1;whiteSpace=wrap;html=1;absoluteArcSize=1;arcSize=14;strokeWidth=2;" vertex="1" parent="1">
          <mxGeometry x="440" y="30" width="240" height="90" as="geometry" />
        </mxCell>
      </root>
    </mxGraphModel>
  </diagram>
  <diagram id="q8JAPSzDunuiKwT_K1k3" name="Page-3">
    <mxGraphModel grid="1" page="1" gridSize="10" guides="1" tooltips="1" connect="1" arrows="1" fold="1" pageScale="1" pageWidth="850" pageHeight="1100" math="0" shadow="0">
      <root>
        <mxCell id="0" />
        <mxCell id="1" parent="0" />
        <mxCell id="hFmzkMPaAdc-bJRSHWJ5-1" style="edgeStyle=orthogonalEdgeStyle;rounded=0;orthogonalLoop=1;jettySize=auto;html=1;entryX=0.5;entryY=0;entryDx=0;entryDy=0;" edge="1" parent="1" source="hFmzkMPaAdc-bJRSHWJ5-2">
          <mxGeometry relative="1" as="geometry">
            <mxPoint x="450.0000000000002" y="300" as="targetPoint" />
          </mxGeometry>
        </mxCell>
        <mxCell id="hFmzkMPaAdc-bJRSHWJ5-2" value="&lt;h2&gt;&lt;font style=&quot;font-size: 28px;&quot;&gt;start&lt;/font&gt;&lt;/h2&gt;" style="strokeWidth=2;html=1;shape=mxgraph.flowchart.terminator;whiteSpace=wrap;fillColor=#fff2cc;strokeColor=#d6b656;" vertex="1" parent="1">
          <mxGeometry x="370" y="180" width="160" height="80" as="geometry" />
        </mxCell>
        <mxCell id="hFmzkMPaAdc-bJRSHWJ5-3" style="edgeStyle=orthogonalEdgeStyle;rounded=0;orthogonalLoop=1;jettySize=auto;html=1;entryX=0.5;entryY=0;entryDx=0;entryDy=0;entryPerimeter=0;exitX=0.5;exitY=1;exitDx=0;exitDy=0;" edge="1" parent="1">
          <mxGeometry relative="1" as="geometry">
            <mxPoint x="450.0000000000002" y="360" as="sourcePoint" />
            <mxPoint x="450.0000000000002" y="400" as="targetPoint" />
          </mxGeometry>
        </mxCell>
        <mxCell id="hFmzkMPaAdc-bJRSHWJ5-4" value="&lt;h5&gt;Declare Vaniable&amp;nbsp;&lt;span style=&quot;text-align: left;&quot;&gt;&amp;nbsp;&lt;/span&gt;base , height , area&lt;/h5&gt;" style="rounded=1;whiteSpace=wrap;html=1;absoluteArcSize=1;arcSize=14;strokeWidth=2;fillColor=#dae8fc;strokeColor=#6c8ebf;" vertex="1" parent="1">
          <mxGeometry x="360" y="300" width="180" height="60" as="geometry" />
        </mxCell>
        <mxCell id="hFmzkMPaAdc-bJRSHWJ5-5" style="edgeStyle=orthogonalEdgeStyle;rounded=0;orthogonalLoop=1;jettySize=auto;html=1;entryX=0.5;entryY=0;entryDx=0;entryDy=0;" edge="1" parent="1" source="hFmzkMPaAdc-bJRSHWJ5-6" target="hFmzkMPaAdc-bJRSHWJ5-9">
          <mxGeometry relative="1" as="geometry" />
        </mxCell>
        <mxCell id="hFmzkMPaAdc-bJRSHWJ5-6" value="&lt;h4 style=&quot;&quot;&gt;&amp;nbsp;Input&amp;nbsp;&lt;br&gt;base , height&amp;nbsp;&lt;br&gt;&amp;nbsp;&lt;/h4&gt;" style="shape=parallelogram;html=1;strokeWidth=2;perimeter=parallelogramPerimeter;whiteSpace=wrap;rounded=1;arcSize=12;size=0.23;fillColor=#d5e8d4;strokeColor=#82b366;align=center;" vertex="1" parent="1">
          <mxGeometry x="377.5" y="400" width="145" height="60" as="geometry" />
        </mxCell>
        <mxCell id="hFmzkMPaAdc-bJRSHWJ5-7" value="&lt;h2&gt;end&lt;/h2&gt;" style="strokeWidth=2;html=1;shape=mxgraph.flowchart.terminator;whiteSpace=wrap;fillColor=#fff2cc;strokeColor=#d6b656;" vertex="1" parent="1">
          <mxGeometry x="395" y="700" width="120" height="60" as="geometry" />
        </mxCell>
        <mxCell id="hFmzkMPaAdc-bJRSHWJ5-8" style="edgeStyle=orthogonalEdgeStyle;rounded=0;orthogonalLoop=1;jettySize=auto;html=1;" edge="1" parent="1" source="hFmzkMPaAdc-bJRSHWJ5-9" target="hFmzkMPaAdc-bJRSHWJ5-10">
          <mxGeometry relative="1" as="geometry" />
        </mxCell>
        <mxCell id="hFmzkMPaAdc-bJRSHWJ5-9" value="&lt;h3 style=&quot;text-align: left;&quot;&gt;Compute&amp;nbsp;&amp;nbsp;&lt;span style=&quot;font-weight: normal; background-color: rgb(43, 255, 0);&quot;&gt;area&lt;/span&gt;&lt;span style=&quot;background-color: initial; font-weight: normal;&quot;&gt;&amp;nbsp;&lt;/span&gt;&lt;span style=&quot;background-color: initial; font-weight: normal;&quot;&gt;= 0.5 X base x height&amp;nbsp;&lt;/span&gt;&lt;/h3&gt;" style="rounded=1;whiteSpace=wrap;html=1;absoluteArcSize=1;arcSize=14;strokeWidth=2;fillColor=#dae8fc;strokeColor=#6c8ebf;" vertex="1" parent="1">
          <mxGeometry x="360" y="500" width="180" height="70" as="geometry" />
        </mxCell>
        <mxCell id="hFmzkMPaAdc-bJRSHWJ5-10" value="&lt;h5&gt;print area&lt;/h5&gt;" style="shape=parallelogram;html=1;strokeWidth=2;perimeter=parallelogramPerimeter;whiteSpace=wrap;rounded=1;arcSize=12;size=0.23;fillColor=#d5e8d4;strokeColor=#82b366;" vertex="1" parent="1">
          <mxGeometry x="360" y="590" width="190" height="60" as="geometry" />
        </mxCell>
        <mxCell id="hFmzkMPaAdc-bJRSHWJ5-11" style="edgeStyle=orthogonalEdgeStyle;rounded=0;orthogonalLoop=1;jettySize=auto;html=1;entryX=0.5;entryY=0;entryDx=0;entryDy=0;entryPerimeter=0;" edge="1" parent="1" source="hFmzkMPaAdc-bJRSHWJ5-10" target="hFmzkMPaAdc-bJRSHWJ5-7">
          <mxGeometry relative="1" as="geometry" />
        </mxCell>
        <mxCell id="hFmzkMPaAdc-bJRSHWJ5-12" value="&lt;h3 style=&quot;&quot;&gt;หาพื้นที่ สามเหลี่ยม&lt;br&gt;1 Start&amp;nbsp;&lt;br&gt;2 Declare vaniable &lt;span style=&quot;background-color: rgb(43, 255, 0);&quot;&gt;area ,&lt;/span&gt;&amp;nbsp;base , height&amp;nbsp;&lt;br&gt;3 Input base , height&amp;nbsp;&lt;br&gt;4 Compute&amp;nbsp;&amp;nbsp;&lt;span style=&quot;font-weight: normal; background-color: rgb(43, 255, 0);&quot;&gt;area&lt;/span&gt;&lt;span style=&quot;background-color: initial; font-weight: normal;&quot;&gt;&amp;nbsp;&lt;/span&gt;&lt;span style=&quot;background-color: initial; font-weight: normal;&quot;&gt;= 0.5 X base x height&amp;nbsp;&lt;/span&gt;&amp;nbsp;&lt;br&gt;&lt;span style=&quot;background-color: initial;&quot;&gt;5 print area&lt;br&gt;&lt;/span&gt;&lt;span style=&quot;background-color: initial;&quot;&gt;6 end&amp;nbsp;&lt;/span&gt;&lt;/h3&gt;" style="rounded=1;whiteSpace=wrap;html=1;absoluteArcSize=1;arcSize=14;strokeWidth=2;align=left;" vertex="1" parent="1">
          <mxGeometry x="40" y="20" width="370" height="140" as="geometry" />
        </mxCell>
        <mxCell id="hFmzkMPaAdc-bJRSHWJ5-13" value="&lt;h3&gt;&lt;font face=&quot;Times New Roman&quot;&gt;Name Student ID :&lt;span style=&quot;background-color: initial;&quot;&gt;1670700044&lt;br&gt;&lt;/span&gt;&lt;span style=&quot;background-color: initial;&quot;&gt;นายณัฐชนนท์ ศิรมลพืวัฒน์ เลขที่ 1&lt;/span&gt;&lt;/font&gt;&lt;/h3&gt;" style="rounded=1;whiteSpace=wrap;html=1;absoluteArcSize=1;arcSize=14;strokeWidth=2;" vertex="1" parent="1">
          <mxGeometry x="430" y="50" width="240" height="90" as="geometry" />
        </mxCell>
      </root>
    </mxGraphModel>
  </diagram>
  <diagram id="Pr0zQ-aokpCI41WSe7Cx" name="Page-4">
    <mxGraphModel grid="1" page="1" gridSize="10" guides="1" tooltips="1" connect="1" arrows="1" fold="1" pageScale="1" pageWidth="850" pageHeight="1100" math="0" shadow="0">
      <root>
        <mxCell id="0" />
        <mxCell id="1" parent="0" />
        <mxCell id="oQkY_9V8DjJ6-eMFmQIA-1" style="edgeStyle=orthogonalEdgeStyle;rounded=0;orthogonalLoop=1;jettySize=auto;html=1;entryX=0.5;entryY=0;entryDx=0;entryDy=0;" edge="1" parent="1" source="oQkY_9V8DjJ6-eMFmQIA-2">
          <mxGeometry relative="1" as="geometry">
            <mxPoint x="450.0000000000002" y="300" as="targetPoint" />
          </mxGeometry>
        </mxCell>
        <mxCell id="oQkY_9V8DjJ6-eMFmQIA-2" value="&lt;h2&gt;&lt;font style=&quot;font-size: 28px;&quot;&gt;start&lt;/font&gt;&lt;/h2&gt;" style="strokeWidth=2;html=1;shape=mxgraph.flowchart.terminator;whiteSpace=wrap;fillColor=#fff2cc;strokeColor=#d6b656;" vertex="1" parent="1">
          <mxGeometry x="400" y="180" width="160" height="80" as="geometry" />
        </mxCell>
        <mxCell id="oQkY_9V8DjJ6-eMFmQIA-3" style="edgeStyle=orthogonalEdgeStyle;rounded=0;orthogonalLoop=1;jettySize=auto;html=1;entryX=0.5;entryY=0;entryDx=0;entryDy=0;entryPerimeter=0;exitX=0.5;exitY=1;exitDx=0;exitDy=0;" edge="1" parent="1">
          <mxGeometry relative="1" as="geometry">
            <mxPoint x="450.0000000000002" y="360" as="sourcePoint" />
            <mxPoint x="450.0000000000002" y="400" as="targetPoint" />
          </mxGeometry>
        </mxCell>
        <mxCell id="oQkY_9V8DjJ6-eMFmQIA-4" value="&lt;h5 style=&quot;text-align: left;&quot;&gt;Declare Vaniable miles , kilometers&lt;/h5&gt;" style="rounded=1;whiteSpace=wrap;html=1;absoluteArcSize=1;arcSize=14;strokeWidth=2;fillColor=#dae8fc;strokeColor=#6c8ebf;" vertex="1" parent="1">
          <mxGeometry x="360" y="300" width="180" height="60" as="geometry" />
        </mxCell>
        <mxCell id="oQkY_9V8DjJ6-eMFmQIA-5" style="edgeStyle=orthogonalEdgeStyle;rounded=0;orthogonalLoop=1;jettySize=auto;html=1;entryX=0.5;entryY=0;entryDx=0;entryDy=0;" edge="1" parent="1" source="oQkY_9V8DjJ6-eMFmQIA-6" target="oQkY_9V8DjJ6-eMFmQIA-9">
          <mxGeometry relative="1" as="geometry" />
        </mxCell>
        <mxCell id="oQkY_9V8DjJ6-eMFmQIA-6" value="&lt;h4 style=&quot;&quot;&gt;&amp;nbsp;Input&amp;nbsp;&lt;br&gt;kilometers&amp;nbsp;&lt;br&gt;&amp;nbsp;&lt;/h4&gt;" style="shape=parallelogram;html=1;strokeWidth=2;perimeter=parallelogramPerimeter;whiteSpace=wrap;rounded=1;arcSize=12;size=0.23;fillColor=#d5e8d4;strokeColor=#82b366;align=center;" vertex="1" parent="1">
          <mxGeometry x="377.5" y="400" width="145" height="60" as="geometry" />
        </mxCell>
        <mxCell id="oQkY_9V8DjJ6-eMFmQIA-7" value="&lt;h2&gt;end&lt;/h2&gt;" style="strokeWidth=2;html=1;shape=mxgraph.flowchart.terminator;whiteSpace=wrap;fillColor=#fff2cc;strokeColor=#d6b656;" vertex="1" parent="1">
          <mxGeometry x="395" y="700" width="120" height="60" as="geometry" />
        </mxCell>
        <mxCell id="oQkY_9V8DjJ6-eMFmQIA-8" style="edgeStyle=orthogonalEdgeStyle;rounded=0;orthogonalLoop=1;jettySize=auto;html=1;" edge="1" parent="1" source="oQkY_9V8DjJ6-eMFmQIA-9" target="oQkY_9V8DjJ6-eMFmQIA-10">
          <mxGeometry relative="1" as="geometry" />
        </mxCell>
        <mxCell id="oQkY_9V8DjJ6-eMFmQIA-9" value="&lt;h3 style=&quot;text-align: left;&quot;&gt;Compute&amp;nbsp; &lt;span style=&quot;background-color: rgb(43, 255, 0);&quot;&gt;Miles = kilometers x 0.621371&lt;/span&gt;&lt;/h3&gt;" style="rounded=1;whiteSpace=wrap;html=1;absoluteArcSize=1;arcSize=14;strokeWidth=2;fillColor=#dae8fc;strokeColor=#6c8ebf;" vertex="1" parent="1">
          <mxGeometry x="360" y="500" width="180" height="70" as="geometry" />
        </mxCell>
        <mxCell id="oQkY_9V8DjJ6-eMFmQIA-10" value="&lt;h5&gt;print Miles&lt;/h5&gt;" style="shape=parallelogram;html=1;strokeWidth=2;perimeter=parallelogramPerimeter;whiteSpace=wrap;rounded=1;arcSize=12;size=0.23;fillColor=#d5e8d4;strokeColor=#82b366;" vertex="1" parent="1">
          <mxGeometry x="360" y="590" width="190" height="60" as="geometry" />
        </mxCell>
        <mxCell id="oQkY_9V8DjJ6-eMFmQIA-11" style="edgeStyle=orthogonalEdgeStyle;rounded=0;orthogonalLoop=1;jettySize=auto;html=1;entryX=0.5;entryY=0;entryDx=0;entryDy=0;entryPerimeter=0;" edge="1" parent="1" source="oQkY_9V8DjJ6-eMFmQIA-10" target="oQkY_9V8DjJ6-eMFmQIA-7">
          <mxGeometry relative="1" as="geometry" />
        </mxCell>
        <mxCell id="oQkY_9V8DjJ6-eMFmQIA-12" value="&lt;h3 style=&quot;&quot;&gt;แปลงค่า กิโลเมตร -&amp;gt; ไมล์&lt;br&gt;1 Start&amp;nbsp;&lt;br&gt;2 Declare vaniable Miles , Kilometers&lt;br&gt;3 Input Kilometers&lt;br&gt;4 Compute&amp;nbsp; &lt;span style=&quot;font-weight: 400; background-color: rgb(43, 255, 0);&quot;&gt;Miles = kilometers x 0.621371&lt;/span&gt;&lt;br&gt;&lt;span style=&quot;background-color: initial;&quot;&gt;5 print Miles&lt;br&gt;&lt;/span&gt;&lt;span style=&quot;background-color: initial;&quot;&gt;6 end&amp;nbsp;&lt;/span&gt;&lt;/h3&gt;" style="rounded=1;whiteSpace=wrap;html=1;absoluteArcSize=1;arcSize=14;strokeWidth=2;align=left;" vertex="1" parent="1">
          <mxGeometry x="10" y="150" width="370" height="140" as="geometry" />
        </mxCell>
        <mxCell id="oQkY_9V8DjJ6-eMFmQIA-13" value="&lt;h3&gt;&lt;font face=&quot;Times New Roman&quot;&gt;Name Student ID :&lt;span style=&quot;background-color: initial;&quot;&gt;1670700044&lt;br&gt;&lt;/span&gt;&lt;span style=&quot;background-color: initial;&quot;&gt;นายณัฐชนนท์ ศิรมลพืวัฒน์ เลขที่ 1&lt;/span&gt;&lt;/font&gt;&lt;/h3&gt;" style="rounded=1;whiteSpace=wrap;html=1;absoluteArcSize=1;arcSize=14;strokeWidth=2;" vertex="1" parent="1">
          <mxGeometry x="500" y="50" width="240" height="90" as="geometry" />
        </mxCell>
      </root>
    </mxGraphModel>
  </diagram>
  <diagram id="yzAFvKJvWMC10_KzUp7Y" name="Page-5">
    <mxGraphModel grid="1" page="1" gridSize="10" guides="1" tooltips="1" connect="1" arrows="1" fold="1" pageScale="1" pageWidth="850" pageHeight="1100" math="0" shadow="0">
      <root>
        <mxCell id="0" />
        <mxCell id="1" parent="0" />
        <mxCell id="DgJ2STtqFauZU0sa52xI-1" style="edgeStyle=orthogonalEdgeStyle;rounded=0;orthogonalLoop=1;jettySize=auto;html=1;entryX=0.5;entryY=0;entryDx=0;entryDy=0;" edge="1" parent="1" source="DgJ2STtqFauZU0sa52xI-2">
          <mxGeometry relative="1" as="geometry">
            <mxPoint x="450.0000000000002" y="300" as="targetPoint" />
          </mxGeometry>
        </mxCell>
        <mxCell id="DgJ2STtqFauZU0sa52xI-2" value="&lt;h2&gt;&lt;font style=&quot;font-size: 28px;&quot;&gt;start&lt;/font&gt;&lt;/h2&gt;" style="strokeWidth=2;html=1;shape=mxgraph.flowchart.terminator;whiteSpace=wrap;fillColor=#fff2cc;strokeColor=#d6b656;" vertex="1" parent="1">
          <mxGeometry x="425" y="180" width="160" height="80" as="geometry" />
        </mxCell>
        <mxCell id="DgJ2STtqFauZU0sa52xI-3" style="edgeStyle=orthogonalEdgeStyle;rounded=0;orthogonalLoop=1;jettySize=auto;html=1;entryX=0.5;entryY=0;entryDx=0;entryDy=0;entryPerimeter=0;exitX=0.5;exitY=1;exitDx=0;exitDy=0;" edge="1" parent="1">
          <mxGeometry relative="1" as="geometry">
            <mxPoint x="450.0000000000002" y="360" as="sourcePoint" />
            <mxPoint x="450.0000000000002" y="400" as="targetPoint" />
          </mxGeometry>
        </mxCell>
        <mxCell id="DgJ2STtqFauZU0sa52xI-4" value="&lt;h5&gt;Declare Vaniable&lt;/h5&gt;&lt;h5 style=&quot;text-align: left;&quot;&gt;Fahrenheit ,&amp;nbsp;Celsius&amp;nbsp;&lt;/h5&gt;" style="rounded=1;whiteSpace=wrap;html=1;absoluteArcSize=1;arcSize=14;strokeWidth=2;fillColor=#dae8fc;strokeColor=#6c8ebf;" vertex="1" parent="1">
          <mxGeometry x="360" y="300" width="180" height="60" as="geometry" />
        </mxCell>
        <mxCell id="DgJ2STtqFauZU0sa52xI-5" style="edgeStyle=orthogonalEdgeStyle;rounded=0;orthogonalLoop=1;jettySize=auto;html=1;entryX=0.5;entryY=0;entryDx=0;entryDy=0;" edge="1" parent="1" source="DgJ2STtqFauZU0sa52xI-6" target="DgJ2STtqFauZU0sa52xI-9">
          <mxGeometry relative="1" as="geometry" />
        </mxCell>
        <mxCell id="DgJ2STtqFauZU0sa52xI-6" value="&lt;h4 style=&quot;&quot;&gt;&amp;nbsp;Input&amp;nbsp;&lt;br&gt;Celsius&amp;nbsp;&lt;br&gt;&amp;nbsp;&lt;/h4&gt;" style="shape=parallelogram;html=1;strokeWidth=2;perimeter=parallelogramPerimeter;whiteSpace=wrap;rounded=1;arcSize=12;size=0.23;fillColor=#d5e8d4;strokeColor=#82b366;align=center;" vertex="1" parent="1">
          <mxGeometry x="377.5" y="400" width="145" height="60" as="geometry" />
        </mxCell>
        <mxCell id="DgJ2STtqFauZU0sa52xI-7" value="&lt;h2&gt;end&lt;/h2&gt;" style="strokeWidth=2;html=1;shape=mxgraph.flowchart.terminator;whiteSpace=wrap;fillColor=#fff2cc;strokeColor=#d6b656;" vertex="1" parent="1">
          <mxGeometry x="395" y="700" width="120" height="60" as="geometry" />
        </mxCell>
        <mxCell id="DgJ2STtqFauZU0sa52xI-8" style="edgeStyle=orthogonalEdgeStyle;rounded=0;orthogonalLoop=1;jettySize=auto;html=1;" edge="1" parent="1" source="DgJ2STtqFauZU0sa52xI-9" target="DgJ2STtqFauZU0sa52xI-10">
          <mxGeometry relative="1" as="geometry" />
        </mxCell>
        <mxCell id="DgJ2STtqFauZU0sa52xI-9" value="&lt;h3 style=&quot;text-align: left;&quot;&gt;Compute&amp;nbsp;&lt;span style=&quot;background-color: rgb(43, 255, 0);&quot;&gt; Fahrenheit = (Celsius x 1.8 ) + 32&amp;nbsp;&lt;/span&gt;&lt;/h3&gt;" style="rounded=1;whiteSpace=wrap;html=1;absoluteArcSize=1;arcSize=14;strokeWidth=2;fillColor=#dae8fc;strokeColor=#6c8ebf;" vertex="1" parent="1">
          <mxGeometry x="360" y="500" width="180" height="70" as="geometry" />
        </mxCell>
        <mxCell id="DgJ2STtqFauZU0sa52xI-10" value="&lt;h5&gt;print Fahrenheit&lt;/h5&gt;" style="shape=parallelogram;html=1;strokeWidth=2;perimeter=parallelogramPerimeter;whiteSpace=wrap;rounded=1;arcSize=12;size=0.23;fillColor=#d5e8d4;strokeColor=#82b366;" vertex="1" parent="1">
          <mxGeometry x="360" y="590" width="190" height="60" as="geometry" />
        </mxCell>
        <mxCell id="DgJ2STtqFauZU0sa52xI-11" style="edgeStyle=orthogonalEdgeStyle;rounded=0;orthogonalLoop=1;jettySize=auto;html=1;entryX=0.5;entryY=0;entryDx=0;entryDy=0;entryPerimeter=0;" edge="1" parent="1" source="DgJ2STtqFauZU0sa52xI-10" target="DgJ2STtqFauZU0sa52xI-7">
          <mxGeometry relative="1" as="geometry" />
        </mxCell>
        <mxCell id="DgJ2STtqFauZU0sa52xI-12" value="&lt;h3 style=&quot;&quot;&gt;แปลงค่า อุณหภูมิ&amp;nbsp;&lt;br&gt;1 Start&amp;nbsp;&lt;br&gt;2 Declare vaniable Fahrenheit ,&amp;nbsp;Celsius&amp;nbsp;&lt;br&gt;3 Input Celsius&amp;nbsp;&lt;/h3&gt;&lt;h3 style=&quot;&quot;&gt;4 Compute&lt;span style=&quot;background-color: rgb(43, 255, 0);&quot;&gt; Fahrenheit = (Celsius x 1.8 ) + 32&lt;/span&gt;&lt;/h3&gt;&lt;h3 style=&quot;&quot;&gt;&lt;span style=&quot;background-color: initial;&quot;&gt;5 print&amp;nbsp;&lt;/span&gt;Fahrenheit&lt;/h3&gt;&lt;h3 style=&quot;&quot;&gt;&lt;span style=&quot;background-color: initial;&quot;&gt;6 end&amp;nbsp;&lt;/span&gt;&lt;/h3&gt;" style="rounded=1;whiteSpace=wrap;html=1;absoluteArcSize=1;arcSize=14;strokeWidth=2;align=left;" vertex="1" parent="1">
          <mxGeometry x="25" y="50" width="370" height="180" as="geometry" />
        </mxCell>
        <mxCell id="DgJ2STtqFauZU0sa52xI-13" value="&lt;h3&gt;&lt;font face=&quot;Times New Roman&quot;&gt;Name Student ID :&lt;span style=&quot;background-color: initial;&quot;&gt;1670700044&lt;br&gt;&lt;/span&gt;&lt;span style=&quot;background-color: initial;&quot;&gt;นายณัฐชนนท์ ศิรมลพืวัฒน์ เลขที่ 1&lt;/span&gt;&lt;/font&gt;&lt;/h3&gt;" style="rounded=1;whiteSpace=wrap;html=1;absoluteArcSize=1;arcSize=14;strokeWidth=2;" vertex="1" parent="1">
          <mxGeometry x="430" y="50" width="240" height="90" as="geometry" />
        </mxCell>
      </root>
    </mxGraphModel>
  </diagram>
</mxfile>
